<svg width="252" height="252" viewBox="0 0 252 252" fill="none" xmlns="http://www.w3.org/2000/svg">
<path d="M126 0C56.4126 0 0 56.4126 0 126C0 195.591 56.4126 252 126 252C195.591 252 252 195.591 252 126C252 56.4126 195.591 0 126 0ZM126 236.498C65.2089 236.498 15.75 186.791 15.75 126C15.75 65.2084 65.2089 15.7495 126 15.7495C186.791 15.7495 236.25 65.2087 236.25 126C236.25 186.79 186.791 236.498 126 236.498ZM181.125 118.125H133.875V70.875C133.875 66.528 130.347 63 126 63C121.653 63 118.125 66.528 118.125 70.875V118.125H70.875C66.528 118.125 63 121.653 63 126C63 130.347 66.528 133.875 70.875 133.875H118.125V181.125C118.125 185.472 121.653 189 126 189C130.347 189 133.875 185.472 133.875 181.125V133.875H181.125C185.472 133.875 189 130.347 189 126C189 121.653 185.472 118.125 181.125 118.125Z" fill="#ECECEC"/>
</svg>
