<svg width="263" height="230" viewBox="0 0 263 230" fill="none" xmlns="http://www.w3.org/2000/svg">
<path d="M8 69.6787V168.085C8 182.232 13.6201 195.8 23.624 205.804C33.6279 215.808 47.1961 221.428 61.3437 221.428H201.371C215.519 221.428 229.087 215.808 239.091 205.804C249.095 195.8 254.715 182.232 254.715 168.085V92.2031C254.715 78.0554 249.095 64.4872 239.091 54.4834C229.087 44.4795 215.519 38.8593 201.371 38.8593H131.357M8 69.6787V48.0078C8 37.3971 12.2151 27.2209 19.718 19.718C27.2209 12.2151 37.3971 8 48.0078 8H86.682C91.0605 7.99918 95.3964 8.86086 99.4419 10.5358C103.487 12.2108 107.163 14.6662 110.26 17.7619L131.357 38.8727L110.313 59.9168C107.217 63.0125 103.541 65.4679 99.4953 67.1429C95.4497 68.8178 91.1139 69.6795 86.7353 69.6787H8Z" stroke="#ECECEC" stroke-width="16" stroke-linejoin="round"/>
</svg>
