<svg width="1126" height="1126" viewBox="0 0 1126 1126" fill="none" xmlns="http://www.w3.org/2000/svg">
<path d="M563 0C873.936 0 1126 252.064 1126 563C1126 873.936 873.936 1126 563 1126C252.064 1126 0 873.936 0 563C0 252.064 252.064 0 563 0ZM349.061 1013.94C413.899 1044.75 486.435 1062 563 1062C639.863 1062 712.665 1044.62 777.695 1013.58L563.426 213.911L349.061 1013.94ZM516.354 66.1533C262.636 89.6739 64 303.139 64 563C64 730.957 146.979 879.532 274.178 969.968L516.354 66.1533ZM852.539 969.454C979.332 878.971 1062 730.64 1062 563C1062 303.438 863.821 90.1645 610.521 66.2344L852.539 969.454Z" fill="#ECECEC"/>
</svg>
